<?xml version="1.0" encoding="iso-8859-1"?>
<!-- Generator: Adobe Illustrator 19.0.0, SVG Export Plug-In . SVG Version: 6.00 Build 0)  -->
<svg version="1.1" id="Layer_1" xmlns="http://www.w3.org/2000/svg" xmlns:xlink="http://www.w3.org/1999/xlink" x="0px" y="0px"
	 viewBox="0 0 512 512" style="enable-background:new 0 0 512 512;" xml:space="preserve">
<path d="M384,302.933c-23.552,0-42.667,19.115-42.667,42.667s19.115,42.667,42.667,42.667c23.552,0,42.667-19.115,42.667-42.667
	S407.552,302.933,384,302.933z M384,371.2c-14.08,0-25.6-11.52-25.6-25.6c0-14.08,11.52-25.6,25.6-25.6s25.6,11.52,25.6,25.6
	C409.6,359.68,398.08,371.2,384,371.2z"/>
<path d="M503.467,157.867h-25.6v-25.6c0-4.693-3.84-8.533-8.533-8.533H221.867c-3.499,0-6.656,2.133-7.936,5.376l-32,79.957H25.6
	c-4.693,0-8.533,3.84-8.533,8.533v68.267H8.533C3.84,285.867,0,289.707,0,294.4v51.2c0,4.693,3.84,8.533,8.533,8.533h51.2
	c4.693,0,8.533-3.84,8.533-8.533c0-32.939,26.795-59.733,59.733-59.733s59.733,26.795,59.733,59.733c0,4.693,3.84,8.533,8.533,8.533
	h119.467c4.693,0,8.533-3.84,8.533-8.533c0-32.939,26.795-59.733,59.733-59.733s59.733,26.795,59.733,59.733
	c0,4.693,3.84,8.533,8.533,8.533H486.4c4.693,0,8.533-3.84,8.533-8.533v-51.2c0-4.693-3.84-8.533-8.533-8.533h-8.533V268.8h25.6
	c4.693,0,8.533-3.84,8.533-8.533V166.4C512,161.707,508.16,157.867,503.467,157.867z M341.333,140.8H460.8v68.267H341.333V140.8z
	 M227.669,140.8h96.597v68.267H200.363L227.669,140.8z M477.867,337.067h-17.579C456.107,298.752,423.424,268.8,384,268.8
	s-72.107,29.952-76.288,68.267H204.288C200.107,298.752,167.424,268.8,128,268.8s-72.107,29.952-76.288,68.267H17.067v-34.133H25.6
	c4.693,0,8.533-3.84,8.533-8.533v-34.133h8.533c4.693,0,8.533-3.84,8.533-8.533s-3.84-8.533-8.533-8.533h-8.533v-17.067H460.8V243.2
	h-8.533c-4.693,0-8.533,3.84-8.533,8.533s3.84,8.533,8.533,8.533h8.533V294.4c0,4.693,3.84,8.533,8.533,8.533h8.533V337.067z
	 M494.933,251.733h-17.067v-76.8h17.067V251.733z"/>
<rect x="477.867" y="174.933" width="17.067" height="76.8"/>
<path d="M128,302.933c-23.552,0-42.667,19.115-42.667,42.667s19.115,42.667,42.667,42.667s42.667-19.115,42.667-42.667
	S151.552,302.933,128,302.933z M128,371.2c-14.08,0-25.6-11.52-25.6-25.6c0-14.08,11.52-25.6,25.6-25.6s25.6,11.52,25.6,25.6
	C153.6,359.68,142.08,371.2,128,371.2z"/>
<path style="fill:#FFFFFF;" d="M145.067,345.6c0-12.621-9.276-23.108-21.333-25.165c-12.058,2.057-21.333,12.544-21.333,25.165
	c0,12.621,9.276,23.108,21.333,25.165C135.791,368.708,145.067,358.221,145.067,345.6z"/>
<path style="fill:#F4F4F4;" d="M128,320c-1.459,0-2.867,0.196-4.267,0.435c12.058,2.057,21.333,12.544,21.333,25.165
	c0,12.621-9.276,23.108-21.333,25.165c1.399,0.239,2.807,0.435,4.267,0.435c14.08,0,25.6-11.52,25.6-25.6
	C153.6,331.52,142.08,320,128,320z"/>
<path style="fill:#FFFFFF;" d="M401.067,345.6c0-12.621-9.276-23.108-21.333-25.165c-12.058,2.057-21.333,12.544-21.333,25.165
	c0,12.621,9.276,23.108,21.333,25.165C391.791,368.708,401.067,358.221,401.067,345.6z"/>
<path style="fill:#F4F4F4;" d="M384,320c-1.459,0-2.867,0.196-4.267,0.435c12.058,2.057,21.333,12.544,21.333,25.165
	c0,12.621-9.276,23.108-21.333,25.165c1.399,0.239,2.807,0.435,4.267,0.435c14.08,0,25.6-11.52,25.6-25.6
	C409.6,331.52,398.08,320,384,320z"/>
<rect x="341.333" y="140.8" style="fill:#FFFFFF;" width="102.4" height="51.2"/>
<polygon style="fill:#F4F4F4;" points="443.733,140.8 443.733,192 341.333,192 341.333,209.067 460.8,209.067 460.8,140.8 "/>
<polygon style="fill:#FFFFFF;" points="307.2,140.8 227.669,140.8 207.189,192 307.2,192 "/>
<g>
	<path style="fill:#F4F4F4;" d="M207.189,192l-6.827,17.067L207.189,192z"/>
	<polygon style="fill:#F4F4F4;" points="307.2,140.8 307.2,192 207.189,192 200.363,209.067 324.267,209.067 324.267,140.8 	"/>
</g>
<g>
	<path style="fill:#AFB42B;" d="M53.367,327.851c-0.06,0.247-0.137,0.495-0.188,0.751C53.239,328.346,53.308,328.107,53.367,327.851
		z"/>
	<path style="fill:#AFB42B;" d="M458.82,328.61c-0.06-0.256-0.137-0.512-0.196-0.768C458.692,328.098,458.769,328.346,458.82,328.61
		z"/>
	<path style="fill:#AFB42B;" d="M309.367,327.851c-0.06,0.247-0.137,0.495-0.188,0.751
		C309.239,328.346,309.308,328.107,309.367,327.851z"/>
	<path style="fill:#AFB42B;" d="M202.82,328.61c-0.06-0.256-0.137-0.512-0.196-0.768C202.692,328.098,202.769,328.346,202.82,328.61
		z"/>
	<path style="fill:#AFB42B;" d="M469.333,302.933c-4.693,0-8.533-3.84-8.533-8.533v-34.133h-8.533c-4.693,0-8.533-3.84-8.533-8.533
		s3.84-8.533,8.533-8.533h8.533v-17.067H34.133V243.2h8.533c4.693,0,8.533,3.84,8.533,8.533s-3.84,8.533-8.533,8.533h-8.533V294.4
		c0,4.693-3.84,8.533-8.533,8.533h-8.533V320h38.622c10.547-29.764,38.98-51.2,72.311-51.2s61.756,21.436,72.311,51.2h111.386
		c10.547-29.764,38.98-51.2,72.311-51.2s61.756,21.436,72.311,51.2h21.547v-17.067H469.333z"/>
</g>
<g>
	<path style="fill:#827717;" d="M53.18,328.602c-0.631,2.773-1.152,5.589-1.468,8.465C52.028,334.191,52.531,331.366,53.18,328.602z
		"/>
	<path style="fill:#827717;" d="M55.689,320L55.689,320c-0.905,2.56-1.69,5.171-2.321,7.851C54.016,325.18,54.784,322.56,55.689,320
		z"/>
	<path style="fill:#827717;" d="M17.067,337.067h34.645c0.316-2.876,0.836-5.692,1.468-8.465c0.06-0.256,0.128-0.495,0.188-0.751
		c0.631-2.679,1.417-5.291,2.321-7.851H17.067V337.067z"/>
	<path style="fill:#827717;" d="M311.689,320L311.689,320c-0.905,2.56-1.69,5.171-2.321,7.851
		C310.016,325.18,310.784,322.56,311.689,320z"/>
	<path style="fill:#827717;" d="M204.288,337.067c-0.316-2.876-0.836-5.683-1.468-8.457
		C203.469,331.375,203.972,334.191,204.288,337.067z"/>
	<path style="fill:#827717;" d="M309.18,328.602c-0.623,2.773-1.152,5.589-1.468,8.465
		C308.028,334.191,308.531,331.366,309.18,328.602z"/>
	<path style="fill:#827717;" d="M200.311,320c0.905,2.56,1.673,5.18,2.321,7.842C201.993,325.171,201.216,322.56,200.311,320
		L200.311,320z"/>
	<path style="fill:#827717;" d="M202.624,327.842c0.06,0.256,0.137,0.512,0.196,0.768c0.623,2.773,1.152,5.581,1.468,8.457h103.424
		c0.316-2.876,0.836-5.692,1.468-8.465c0.06-0.256,0.128-0.495,0.188-0.751c0.631-2.679,1.417-5.291,2.321-7.851H200.311
		C201.216,322.56,201.993,325.171,202.624,327.842z"/>
	<path style="fill:#827717;" d="M456.311,320c0.905,2.56,1.673,5.18,2.321,7.842C457.993,325.171,457.216,322.56,456.311,320
		L456.311,320z"/>
	<path style="fill:#827717;" d="M460.288,337.067c-0.316-2.876-0.836-5.683-1.468-8.457
		C459.469,331.375,459.972,334.191,460.288,337.067z"/>
	<path style="fill:#827717;" d="M458.624,327.842c0.06,0.256,0.137,0.512,0.196,0.768c0.623,2.773,1.152,5.581,1.468,8.457h17.579
		V320h-21.555C457.216,322.56,457.993,325.171,458.624,327.842z"/>
</g>
<g>
</g>
<g>
</g>
<g>
</g>
<g>
</g>
<g>
</g>
<g>
</g>
<g>
</g>
<g>
</g>
<g>
</g>
<g>
</g>
<g>
</g>
<g>
</g>
<g>
</g>
<g>
</g>
<g>
</g>
</svg>
