<?xml version="1.0" encoding="iso-8859-1"?>
<!-- Generator: Adobe Illustrator 18.0.0, SVG Export Plug-In . SVG Version: 6.00 Build 0)  -->
<!DOCTYPE svg PUBLIC "-//W3C//DTD SVG 1.1//EN" "http://www.w3.org/Graphics/SVG/1.1/DTD/svg11.dtd">
<svg version="1.1" id="Capa_1" xmlns="http://www.w3.org/2000/svg" xmlns:xlink="http://www.w3.org/1999/xlink" x="0px" y="0px"
	 viewBox="0 0 421.125 421.125" style="enable-background:new 0 0 421.125 421.125;" xml:space="preserve">
<g>
	<path style="fill:#211915;" d="M420.375,219.318l-5.476-24.046c-0.932-4.093-4.32-7.168-8.483-7.699l-50.267-6.417
		c-15.995-11.494-40.075-28.882-42.389-30.781c-6.14-5.217-13.958-8.09-22.015-8.09H133.661c-11.457,0-22.749,1.926-33.56,5.725
		c-8.305,2.918-16.204,6.913-23.477,11.873l-28.47,19.416c-0.63,0.43-1.196,0.919-1.695,1.456H33.421
		c-11.252,0-21.345,7.124-25.114,17.727l-6.677,18.785c-2.299,6.466-2.161,13.536,0.389,19.909
		c4.754,11.876,16.091,19.55,28.883,19.55H45.39c4.214,12.826,16.297,22.116,30.514,22.116s26.3-9.29,30.514-22.116h211.49
		c4.214,12.826,16.296,22.116,30.515,22.116c14.218,0,26.3-9.29,30.514-22.116h11.137c13.288,0,25.114-8.445,29.427-21.016
		C421.312,230.429,421.615,224.761,420.375,219.318z M400.583,229.219c-1.54,4.489-5.763,7.505-10.509,7.505h-11.137
		c-4.214-12.826-16.296-22.117-30.514-22.117c-14.219,0-26.301,9.29-30.515,22.117h-211.49
		c-4.214-12.826-16.296-22.117-30.514-22.117s-26.3,9.29-30.514,22.117H30.901c-4.568,0-8.617-2.741-10.314-6.981
		c-0.74-1.849-0.781-3.901-0.113-5.778l6.678-18.785c0.941-2.647,3.46-4.426,6.27-4.426h318.315l45.215,5.773l3.924,17.231
		C401.288,225.572,401.187,227.46,400.583,229.219z M360.54,246.724c0,6.681-5.436,12.116-12.116,12.116
		c-6.682,0-12.117-5.436-12.117-12.116c0-6.681,5.436-12.117,12.117-12.117C355.104,234.607,360.54,240.043,360.54,246.724z
		 M88.021,246.724c0,6.681-5.436,12.116-12.116,12.116c-6.681,0-12.117-5.436-12.117-12.116c0-6.681,5.436-12.117,12.117-12.117
		C82.585,234.607,88.021,240.043,88.021,246.724z M185.608,162.285v18.469h-41.5v-18.469H185.608z M247.108,162.285v18.469h-41.5
		v-18.469H247.108z M267.108,180.754v-18.469h24.639c3.317,0,6.536,1.183,9.063,3.331c1.506,1.279,10.634,7.941,20.579,15.139
		H267.108z M124.108,162.858v17.896H81.517l6.376-4.348c5.836-3.98,12.174-7.186,18.839-9.527
		C112.383,164.892,118.199,163.556,124.108,162.858z"/>
</g>
<g>
</g>
<g>
</g>
<g>
</g>
<g>
</g>
<g>
</g>
<g>
</g>
<g>
</g>
<g>
</g>
<g>
</g>
<g>
</g>
<g>
</g>
<g>
</g>
<g>
</g>
<g>
</g>
<g>
</g>
</svg>
